<?xml version="1.0" encoding="UTF-8"?>
<svg id="Layer_1" xmlns="http://www.w3.org/2000/svg" version="1.1" viewBox="0 0 1366 768">
  <!-- Generator: Adobe Illustrator 30.2.1, SVG Export Plug-In . SVG Version: 2.1.1 Build 1)  -->
  <path d="M588.52,254.33h22.15l-50.33,100.67,50.33,100.67h-25.16l-37.67-78.39v78.39h-25.16v-201.33h25.16v82.14l40.69-82.14ZM610.67,388.56h38.18v-134.22h-38.18v134.22ZM620.21,455.8h19.09v-44.83h-19.09v44.83ZM708.42,349.63l-41.86-95.3h-4.59v201.33h9.88v-122.95l34.22,78.39,34.33-78.39v122.95h19.64v-201.33h-9.88l-41.74,95.3ZM901.81,299.16v111.67c0,12.17-4.26,22.68-12.77,31.54-8.52,8.86-18.68,13.29-30.49,13.29h-43.53c-11.82,0-22.02-4.38-30.62-13.15-8.6-8.77-12.9-19.33-12.9-31.68v-111.67c0-12.35,4.3-22.91,12.9-31.68,8.6-8.77,18.81-13.15,30.62-13.15h43.53c11.81,0,21.98,4.43,30.49,13.29,8.51,8.86,12.77,19.37,12.77,31.54ZM858.54,299.16c0-6.26-2.13-11.58-6.39-15.97-4.26-4.38-9.43-6.58-15.51-6.58s-10.99,2.19-15.25,6.58c-4.26,4.39-6.39,9.71-6.39,15.97v111.67c0,6.09,2.13,11.37,6.39,15.84,4.26,4.48,9.34,6.71,15.25,6.71s11.25-2.24,15.51-6.71c4.26-4.47,6.39-9.75,6.39-15.84v-111.67Z"/>
  <text/>
</svg>
